<?xml version="1.0"?><svg width="744.09448819" height="1052.3622047" xmlns="http://www.w3.org/2000/svg">

 <metadata id="metadata12390">image/svg+xmlOther map symbolsMohamed IbrahimPublic Domainclker.comother map symbols</metadata>
 <g>
  <title>Layer 1</title>
  <path fill="#000000" fill-rule="evenodd" id="path3044" d="m370.798035,397.546326c8.297791,6.584717 12.47345,26.23175 12.366394,26.017639c15.150177,4.818054 24.786316,14.828949 24.786316,14.828949c23.287384,-12.955261 23.822723,-7.120056 33.940674,-14.828949c8.404877,-5.781708 7.976593,-7.54834 12.366394,-22.912659c4.068604,-12.419922 -10.332092,-11.295685 -22.270203,-33.994202c-20.717743,7.869537 -31.906372,4.282745 -38.919373,3.693878c-3.10498,-0.428284 -2.623169,12.20578 -22.270203,27.195343m75.429657,150.216919c-2.944366,3.961548 -4.336273,4.818115 -8.083649,9.957336c-5.942291,7.81604 1.766632,19.75415 5.674622,17.880432c4.496857,-1.713074 7.387695,-10.706848 12.312866,-13.597656c2.516083,-1.391907 9.207855,-11.18866 15.471375,-17.880432c4.603943,-5.246338 7.976593,-7.54834 12.366394,-12.955261c7.387726,-9.207886 8.993744,-16.220886 15.471375,-26.071167c3.961517,-5.085724 6.798828,-6.691742 10.439178,-12.955261c19.325836,-36.563843 13.704742,-52.99884 32.22757,-79.123535c5.621094,-7.762451 11.991638,-9.636139 20.985413,-14.240082c8.351318,-60.975433 -19.325867,-95.023163 -19.111694,-95.130249c-23.340942,13.597687 -35.86792,19.111725 -60.011841,17.880432c-9.10083,-0.107086 -13.918884,-4.015076 -22.912628,-3.158508c-8.351349,0.321198 -12.634064,3.426178 -21.03894,6.263489c-12.848206,3.961517 -19.861176,7.548309 -33.351807,11.723969c-8.56546,2.409058 -13.972412,2.516113 -22.912628,5.514038c-7.601837,3.265594 -3.961517,0.642395 -9.261414,6.798828c-6.905914,7.655396 -5.246338,13.597687 -11.723969,26.660034c-8.030151,17.184479 -7.120056,19.48645 -2.516113,21.57428c-3.051453,8.779602 -3.747406,14.614838 -3.051453,24.143921c0.856537,7.227112 -2.301971,12.20578 5.567566,17.987488c10.546234,7.815979 32.709381,26.23175 38.384003,26.552948c8.458405,-0.321198 33.030579,0.642395 45.664642,-8.030151c2.837311,-1.82016 3.693878,-3.586761 1.284821,3.105011c-0.535339,0.856537 -31.263947,24.786316 -34.636597,24.67926c-39.079956,1.284821 -26.017609,3.479706 -28.426666,2.516083c-1.980743,0 -20.931854,-23.019684 -32.22757,-14.828949c-4.282745,2.623169 -6.263519,5.085724 -7.923065,9.796753c1.445435,3.051453 8.351349,7.869507 14.721893,11.831055c9.207886,5.835236 10.064423,12.045197 19.272308,14.240082c11.18866,2.462585 23.073242,0.803009 30.193298,1.766632c2.730225,0.695953 27.409485,-6.477631 42.773804,-14.775421c14.240082,-7.28067 -19.539978,14.132996 -27.944855,24.67923c-24.732788,7.869568 -17.773346,8.190735 -29.550873,10.599792c-10.974487,2.462585 -10.492676,1.873657 -17.987488,4.282715c-7.762451,1.873718 -14.132996,12.419922 -6.798828,17.987488c4.389801,3.64032 18.094543,-1.498962 31.585175,-1.927246c5.942291,-0.053528 30.300354,-11.242126 35.867889,-14.186523c13.651215,-7.441284 23.929779,-17.66626 32.066986,-23.555054c11.295715,-7.815979 -12.74115,21.681335 -22.8591,33.994202"/>
  <path fill="#000000" fill-rule="evenodd" id="path3046" d="m325.026306,386.411224c-8.244263,-6.7453 -12.47348,-26.445892 -12.366394,-26.552948c-15.150177,-4.496887 -24.786346,-14.507751 -24.786346,-14.186554c-23.287354,12.634064 -23.929779,6.798828 -33.940659,14.186554c-8.458405,6.102905 -7.976593,7.976593 -12.366394,22.805542c-4.068604,12.955292 10.278564,11.723999 22.270218,34.101288c20.717743,-7.548309 31.906372,-3.961517 38.919342,-3.158508c3.105011,0.214142 2.623199,-12.419952 22.270233,-27.195374m-75.376129,-150.216919c2.890839,-4.175659 4.28273,-5.032211 8.030121,-9.957352c5.835236,-8.030136 -1.766632,-19.968246 -5.514023,-18.469299c-4.603928,2.08783 -7.548309,11.081573 -13.115875,14.186554c-1.980759,1.177765 -8.672531,10.974518 -14.828964,17.880417c-4.603943,5.032211 -7.92305,7.334183 -12.312866,13.062347c-7.548325,8.886688 -8.993744,15.899658 -15.524902,25.321655c-4.068604,5.621094 -6.852371,7.120056 -10.439178,13.597687c-19.325836,36.403259 -13.811813,52.784729 -32.174042,78.534668c-5.674622,8.244232 -12.045181,10.010864 -21.038925,14.828949c-8.351341,60.868378 19.218765,94.862579 19.111694,94.648438c23.340897,-13.276459 35.760834,-18.844025 60.065353,-17.987488c9.047287,0.481812 13.865356,4.389801 22.8591,3.747406c8.404877,-0.535339 12.687607,-3.64032 21.038925,-6.156433c12.848221,-4.282745 19.861191,-7.869537 32.709396,-11.831055c9.207886,-2.623169 14.56131,-2.730255 23.555054,-6.156433c7.494781,-2.837311 3.961517,-0.214142 9.261383,-6.156433c6.798859,-7.869537 5.246368,-13.811798 11.135132,-26.552948c8.672516,-17.505676 7.708923,-19.807648 3.10498,-21.681335c2.944366,-8.993774 3.747375,-14.721924 3.051453,-24.143921c-0.963623,-7.334198 2.194885,-12.419952 -5.567566,-17.880432c-10.546234,-8.137177 -32.709381,-26.552948 -38.384003,-26.660004c-8.458405,0.107056 -33.137665,-0.856567 -45.664658,7.441223c-2.944382,2.194916 -3.64032,3.961548 -1.284821,-2.409027c0.535339,-1.177734 31.263962,-25.107544 34.636612,-25.428741c39.079956,-0.803009 26.017609,-2.997894 28.426666,-1.873688c1.873688,-0.214142 20.824799,22.805573 32.22757,14.828979c4.175659,-2.783783 6.263489,-5.299896 8.030121,-9.796783c-1.55249,-3.265564 -8.458405,-8.083649 -14.828979,-11.723969c-9.207855,-6.156433 -10.171478,-12.312866 -19.272308,-14.347168c-11.188629,-2.676697 -23.180298,-1.017151 -30.193268,-2.409027c-2.730225,-0.26767 -27.409485,6.905914 -42.666733,14.882507c-14.400711,7.601837 19.432907,-13.811829 27.837753,-24.786346c24.786346,-7.441238 17.66629,-7.762436 29.657959,-10.439148c10.867432,-2.194916 10.38562,-1.606033 17.880402,-3.800934c7.655396,-2.08783 14.133026,-12.527008 6.798859,-18.469284c-4.496887,-3.372665 -18.094574,1.766617 -31.585175,1.873688c-5.942291,0.428268 -30.300354,11.616913 -35.814362,14.721893c-13.811829,7.227127 -23.983322,17.452164 -32.120529,22.912643c-11.402771,8.244263 12.74115,-21.146011 22.912643,-33.351807"/>
 </g>
</svg>
