<svg height="512pt" viewBox="0 0 512 511" width="512pt" xmlns="http://www.w3.org/2000/svg"><path d="m270.898438 259.699219 38.800781 44h55.199219v-5.5l-62.898438-63.800781zm0 0"/><path d="m482.601562 69.199219v411h-413.902343v30.902343h443.300781v-441.902343zm0 0"/><path d="m453.101562 450.800781v-450.300781h-453.101562v450.300781zm-384.402343-117.699219v-263.902343h325.601562v263.902343zm0 0"/><path d="m98.101562 208.699219 78.398438-55.597657 74.800781 84.597657 52.800781-42.898438 60.699219 61.597657v-157.796876h-266.699219zm163.796876-65.699219c8.203124 0 14.402343 6.699219 14.703124 14.699219.398438 7.902343-7 14.699219-14.703124 14.699219-8.199219 0-14.398438-6.699219-14.699219-14.699219-.398438-7.898438 7-14.699219 14.699219-14.699219zm0 0"/><path d="m98.101562 244.800781v58.898438h172.296876l-98.398438-111.300781zm0 0"/></svg>