<svg height="512pt" viewBox="0 0 512 512" width="512pt" xmlns="http://www.w3.org/2000/svg"><path d="m396.238281 366.320312c-3.832031 3.8125-5.855469 8.679688-5.855469 14.082032v121.503906l114.324219-141.089844-94.53125-.269531c-5.316406 0-10.136719 1.996094-13.9375 5.773437zm0 0"/><path d="m0 399.457031c0 29.292969 9.335938 56.964844 26.292969 77.917969 17.707031 21.882812 41.535156 33.9375 67.085937 33.9375h266.929688v-130.910156c0-13.390625 5.230468-25.964844 14.722656-35.40625 9.496094-9.441406 22.132812-14.613282 35.484375-14.523438l101.460937.5v.230469-151.65625h-511.976562zm215.171875-178.375c15.589844 0 30.15625 6.246094 40.847656 16.722657 10.691407-10.476563 25.257813-16.722657 40.84375-16.722657 15.71875 0 30.472657 6.140625 41.542969 17.289063 10.980469 11.054687 16.96875 25.695312 16.859375 41.21875-.15625 22.933594-16.285156 47.238281-47.933594 72.238281-21.835937 17.25-43.359375 28.734375-44.265625 29.214844-2.203125 1.171875-4.625 1.757812-7.046875 1.757812-2.410156 0-4.816406-.578125-7.011719-1.734375-.910156-.480468-22.59375-11.96875-44.511718-29.21875-31.828125-25.054687-47.886719-49.4375-47.726563-72.46875.222657-32.144531 26.421875-58.296875 58.402344-58.296875zm0 0"/><path d="m255.992188 350.488281c-7.585938-4.445312-20.28125-12.347656-32.894532-22.273437-23.042968-18.136719-36.257812-35.8125-36.253906-48.496094v-.128906c.105469-15.679688 12.816406-28.433594 28.328125-28.433594 7.417969 0 14.449219 2.886719 19.800781 8.128906l21.042969 20.617188 21.046875-20.617188c5.351562-5.242187 12.386719-8.128906 19.800781-8.128906 7.753907 0 14.742188 2.90625 20.203125 8.40625 5.316406 5.355469 8.128906 12.136719 8.128906 19.617188l-.003906.199218c-.085937 12.792969-13.390625 30.597656-36.503906 48.851563-12.546875 9.914062-25.148438 17.808593-32.695312 22.257812zm0 0"/><path d="m485.710938 71.925781c-17.707032-21.882812-41.53125-33.933593-67.085938-33.933593h-15.433594l-.453125 54.359374c-.070312 8.261719-6.789062 14.910157-15.035156 14.910157-.042969 0-.085937 0-.125 0-8.304687-.070313-14.984375-6.859375-14.914063-15.160157l.453126-54.109374h-233.9375l-.453126 54.359374c-.066406 8.261719-6.785156 14.910157-15.03125 14.910157-.042968 0-.085937 0-.128906 0-8.304687-.070313-14.980468-6.859375-14.910156-15.160157l.449219-54.109374h-15.695313c-25.554687 0-49.378906 12.050781-67.085937 33.933593-16.886719 20.867188-26.207031 48.390625-26.2890628 77.546875h511.9648438c-.078125-29.15625-9.402344-56.679687-26.289062-77.546875zm0 0"/><path d="m139.371094 15.164062c.070312-8.304687-6.605469-15.0937495-14.910156-15.164062-8.347657-.0585938-15.09375 6.609375-15.164063 14.910156l-.191406 23.082032h30.074219zm0 0"/><path d="m403.382812 15.164062c.066407-8.304687-6.609374-15.0937495-14.914062-15.164062-.042969 0-.082031 0-.125 0-8.246094 0-14.964844 6.652344-15.035156 14.910156l-.191406 23.082032h30.074218zm0 0"/></svg>