<?xml version="1.0" encoding="iso-8859-1"?>
<!-- Generator: Adobe Illustrator 19.0.0, SVG Export Plug-In . SVG Version: 6.00 Build 0)  -->
<svg version="1.1" id="Capa_1" xmlns="http://www.w3.org/2000/svg" xmlns:xlink="http://www.w3.org/1999/xlink" x="0px" y="0px"
	 viewBox="0 0 512 512" style="enable-background:new 0 0 512 512;" xml:space="preserve">
<g>
	<g>
		<path d="M218.029,359.992v15.001c0,8.276,6.724,15.001,15.001,15.001c8.276,0,15.001-6.724,15.001-15.001v-15.001H218.029z"/>
	</g>
</g>
<g>
	<g>
		<path d="M499.966,305.278l-41.956-83.896C455.835,83.184,329.832-23.141,188.041,4.355
			C99.238,21.597,28.497,93.026,12.002,182.064c-11.617,62.713,2.329,125.06,39.26,175.571
			c30.587,41.867,46.76,91.359,46.76,139.365c0,8.291,6.709,15.001,15.001,15.001h210.01c8.291,0,15.001-6.709,15.001-15.001V457.79
			c0-4.292,3.501-7.793,7.793-7.793h67.21c24.815,0,45.002-20.187,45.002-45.002v-45.002h8.115c13.185,0,25.211-6.694,32.141-17.916
			C505.24,330.841,505.87,317.099,499.966,305.278z M218.029,74.978c0-8.291,6.709-15.001,15.001-15.001
			c8.291,0,15.001,6.709,15.001,15.001v30.001c0,8.291-6.709,15.001-15.001,15.001c-8.291,0-15.001-6.709-15.001-15.001V74.978z
			 M113.023,239.986H83.022c-8.291,0-15.001-6.709-15.001-15.001c0-8.291,6.709-15.001,15.001-15.001h30.001
			c8.291,0,15.001,6.709,15.001,15.001C128.024,233.277,121.315,239.986,113.023,239.986z M116.349,129.517
			c-5.859-5.859-5.859-15.353,0-21.212c5.859-5.859,15.353-5.859,21.212,0l21.212,21.212c5.859,5.859,5.859,15.353,0,21.212
			c-5.859,5.859-15.353,5.859-21.212,0L116.349,129.517z M278.031,350.954v24.039c0,24.815-20.187,45.002-45.002,45.002
			c-24.815,0-45.002-20.187-45.002-45.002v-24.142c0-48.496-44.881-52.164-44.956-110.864c-0.062-50.25,39.075-90.015,89.958-89.993
			c49.342,0.022,90.004,39.765,90.004,89.993C323.034,296.129,278.031,305.124,278.031,350.954z M328.498,150.729
			c-5.859,5.859-15.353,5.859-21.212,0s-5.859-15.353,0-21.212l21.212-21.212c5.859-5.859,15.353-5.859,21.212,0
			s5.859,15.353,0,21.212L328.498,150.729z M383.037,239.986h-30.001c-8.291,0-15.001-6.709-15.001-15.001
			c0-8.291,6.709-15.001,15.001-15.001h30.001c8.291,0,15.001,6.709,15.001,15.001C398.037,233.277,391.328,239.986,383.037,239.986
			z"/>
	</g>
</g>
<g>
	<g>
		<path d="M233.021,180.021c-33.395-0.079-58.879,25.211-59.974,57.991c-1.414,42.219,31.185,42.563,42.424,91.979h35.226
			c11.075-47.219,42.334-50.479,42.334-90.004C293.032,206.841,266.378,180.098,233.021,180.021z"/>
	</g>
</g>
<g>
</g>
<g>
</g>
<g>
</g>
<g>
</g>
<g>
</g>
<g>
</g>
<g>
</g>
<g>
</g>
<g>
</g>
<g>
</g>
<g>
</g>
<g>
</g>
<g>
</g>
<g>
</g>
<g>
</g>
</svg>
