<svg height="511pt" viewBox="0 1 511.99941 511" width="511pt" xmlns="http://www.w3.org/2000/svg"><path d="m502.851562 265.445312-60.296874-25.546874c-.992188-11.585938-3.023438-23.027344-6.070313-34.1875l44.117187-50.386719c4.085938-4.667969 4.878907-11.371094 1.988282-16.863281-13.480469-25.625-30.992188-48.667969-52.050782-68.488282-4.757812-4.476562-11.871093-5.363281-17.582031-2.175781l-53.984375 30.089844c-11.863281-7.9375-24.519531-14.445313-37.804687-19.441407l-10.570313-62.128906c-1.070312-6.292968-6.003906-11.21875-12.300781-12.277344-13.957031-2.347656-28.1875-3.539062-42.296875-3.539062s-28.339844 1.191406-42.300781 3.539062c-6.292969 1.058594-11.226563 5.984376-12.296875 12.277344l-10.570313 62.125c-13.285156 5-25.941406 11.507813-37.808593 19.445313l-53.980469-30.089844c-5.710938-3.1875-12.824219-2.304687-17.585938 2.175781-21.058593 19.820313-38.570312 42.863282-52.050781 68.488282-2.886719 5.492187-2.097656 12.195312 1.992188 16.863281l44.117187 50.386719c-3.050781 11.160156-5.082031 22.601562-6.074219 34.1875l-60.292968 25.546874c-5.914063 2.507813-9.578126 8.5-9.1093755 14.90625 2.1679685 29.605469 9.2460935 58.359376 21.0351565 85.460938 2.5 5.746094 8.304687 9.355469 14.566406 8.992188l70.933594-3.847657c4.742187 6.351563 9.882812 12.40625 15.371093 18.113281l-19.242187 68.5c-1.710937 6.085938.582031 12.589844 5.726563 16.265626 24.328124 17.367187 51.175781 30.191406 79.789062 38.117187 6.109375 1.695313 12.628906-.640625 16.273438-5.828125l42.171874-59.988281c6.253907.316406 12.417969.316406 18.671876 0l42.171874 59.988281c2.855469 4.0625 7.46875 6.375 12.269532 6.375 1.332031 0 2.679687-.179688 4.003906-.546875 28.617188-7.929687 55.460938-20.753906 79.785156-38.117187 5.148438-3.675782 7.4375-10.179688 5.726563-16.265626l-19.242188-68.496093c5.492188-5.707031 10.628907-11.765625 15.371094-18.117188l70.9375 3.847657c6.234375.351562 12.066406-3.246094 14.566406-8.992188 11.789063-27.101562 18.867188-55.855469 21.035157-85.460938.464843-6.40625-3.195313-12.398437-9.109376-14.90625zm-245.417968 98.355469c-57.617188 0-104.492188-47.480469-104.492188-105.84375s46.875-105.84375 104.492188-105.84375c57.617187 0 104.492187 47.480469 104.492187 105.84375s-46.875 105.84375-104.492187 105.84375zm0 0"/></svg>