<svg height="512pt" viewBox="0 -32 512 512" width="512pt" xmlns="http://www.w3.org/2000/svg"><path d="m271 15c0-8.285156-6.714844-15-15-15s-15 6.714844-15 15v64.265625c0 8.285156 6.714844 15 15 15s15-6.714844 15-15zm0 0"/><path d="m181.128906 105.941406c2.925782 2.925782 6.765625 4.394532 10.605469 4.394532 3.835937 0 7.675781-1.464844 10.605469-4.394532 5.855468-5.859375 5.855468-15.355468 0-21.214844l-32.136719-32.132812c-5.855469-5.859375-15.351563-5.859375-21.210937 0-5.859376 5.859375-5.859376 15.355469 0 21.214844zm0 0"/><path d="m320.265625 110.332031c3.839844 0 7.679687-1.464843 10.605469-4.394531l32.136718-32.132812c5.855469-5.855469 5.855469-15.355469 0-21.210938-5.859374-5.859375-15.355468-5.859375-21.214843 0l-32.132813 32.132812c-5.859375 5.859376-5.859375 15.355469 0 21.210938 2.929688 2.929688 6.769532 4.394531 10.605469 4.394531zm0 0"/><path d="m212.605469 144.914062c-.15625.128907-.304688.253907-.445313.371094l-64.851562 55.59375c-6.007813 5.148438-13.6875 7.988282-21.609375 7.988282h-46.449219c-43.769531 0-79.25 35.417968-79.25 79.25v144.621093c0 8.28125 6.714844 15 15 15h128.53125c8.289062 0 15-6.722656 15-15v-137.703125l76.328125-65.425781c3.898437-3.339844 6.140625-8.21875 6.140625-13.351563v-57.589843c0-14.648438-17.015625-22.980469-28.394531-13.753907zm0 0"/><path d="m432.75 208.867188h-46.449219c-7.921875 0-15.601562-2.839844-21.609375-7.992188l-64.851562-55.589844c-.140625-.117187-.289063-.242187-.445313-.371094-11.378906-9.226562-28.394531-.894531-28.394531 13.753907v57.589843c0 5.132813 2.242188 10.011719 6.140625 13.351563l76.328125 65.425781v137.699219c0 8.28125 6.710938 15 15 15h128.53125c8.285156 0 15-6.714844 15-15v-144.617187c0-43.832032-35.480469-79.25-79.25-79.25zm0 0"/><path d="m142.464844 145.664062c0-34.847656-28.351563-63.199218-63.199219-63.199218s-63.199219 28.351562-63.199219 63.199218c0 34.851563 28.351563 63.203126 63.199219 63.203126s63.199219-28.351563 63.199219-63.203126zm0 0"/><path d="m495.933594 145.664062c0-34.847656-28.351563-63.199218-63.199219-63.199218s-63.199219 28.351562-63.199219 63.199218c0 34.851563 28.351563 63.203126 63.199219 63.203126s63.199219-28.351563 63.199219-63.203126zm0 0"/></svg>