<svg viewBox="0 0 512 512.00001" xmlns="http://www.w3.org/2000/svg"><path d="m329.730469 132.917969v-132.917969l-20.550781 8.210938c-93.058594 37.234374-195.570313 37.234374-288.628907 0l-20.550781-8.210938v132.917969c0 99.015625 59.410156 186.746093 151.324219 223.527343l13.539062 5.414063 13.523438-5.414063c91.933593-36.765624 151.34375-124.511718 151.34375-223.527343zm-269.78125 2.96875c0-24.792969 20.171875-44.960938 44.964843-44.960938 24.792969 0 44.964844 20.167969 44.964844 44.960938h-29.976562c0-8.265625-6.71875-14.984375-14.988282-14.984375-8.269531 0-14.988281 6.71875-14.988281 14.984375zm179.855469 59.953125c0 41.320312-33.621094 74.9375-74.941407 74.9375-41.316406 0-74.9375-33.617188-74.9375-74.9375v-14.988282h29.976563v14.988282c0 24.792968 20.167968 44.960937 44.960937 44.960937 24.796875 0 44.964844-20.167969 44.964844-44.960937v-14.988282h29.976563zm-14.988282-74.9375c-8.269531 0-14.988281 6.71875-14.988281 14.984375h-29.976563c0-24.792969 20.171876-44.960938 44.964844-44.960938 24.792969 0 44.960938 20.167969 44.960938 44.960938h-29.972656c0-8.265625-6.71875-14.984375-14.988282-14.984375zm0 0"/><path d="m491.03125 151.945312c-42.464844 16.988282-87.953125 26.230469-133.652344 27.527344-15.121094 87.714844-72.398437 162.183594-155.058594 199.527344 25.039063 57.425781 71.386719 103.789062 130.855469 127.585938l13.539063 5.414062 13.523437-5.414062c91.933594-36.769532 151.34375-124.777344 151.34375-223.792969v-139.058594zm-69.378906 253.722657h-29.972656v-14.988281c0-24.792969-20.171876-44.964844-44.964844-44.964844-24.792969 0-44.960938 20.171875-44.960938 44.964844v14.988281h-29.976562v-14.988281c0-41.320313 33.621094-74.9375 74.9375-74.9375 41.320312 0 74.9375 33.617187 74.9375 74.9375zm-14.984375-117.796875c-24.796875 0-44.964844-20.167969-44.964844-44.960938h29.976563c0 8.269532 6.71875 14.988282 14.988281 14.988282s14.984375-6.71875 14.984375-14.988282h29.976562c0 24.792969-20.167968 44.960938-44.960937 44.960938zm0 0"/></svg>