<svg id="Layer_1" enable-background="new 0 0 512 512" height="512" viewBox="0 0 512 512" width="512" xmlns="http://www.w3.org/2000/svg"><g><path d="m328.3 0c-8.284 0-15 6.716-15 15v449.866c0 26.335 21.389 47.134 47.133 47.134 26.337 0 47.133-21.39 47.133-47.134v-97.466h33.2c8.284 0 15-6.716 15-15v-224.95c.001-70.52-57.071-127.45-127.466-127.45z"/><path d="m265.376 5.421c-2.167-1.385-4.422-2.666-6.76-3.836-4.225-2.113-9.206-2.113-13.43 0-2.339 1.17-4.594 2.452-6.76 3.836-8.56 5.471-13.658 15.006-13.658 25.164v96.455c0 8.077-6.207 15.027-14.275 15.407-8.614.406-15.725-6.458-15.725-14.983v-96.879c0-10.159-5.098-19.693-13.658-25.164-2.167-1.385-4.422-2.666-6.76-3.836-4.225-2.113-9.206-2.113-13.43 0-2.339 1.17-4.594 2.452-6.76 3.836-8.56 5.471-13.658 15.005-13.658 25.164v96.455c0 8.077-6.207 15.027-14.275 15.407-8.614.406-15.725-6.458-15.725-14.983v-96.879c0-10.159-5.098-19.693-13.658-25.164-2.167-1.385-4.422-2.666-6.76-3.836-4.225-2.113-9.206-2.113-13.43 0-2.339 1.17-4.594 2.452-6.76 3.836-8.56 5.471-13.658 15.006-13.658 25.164v145.079c0 38.58 27.707 70.812 64.267 77.843v210.568c0 25.809 20.418 47.426 46.222 47.916 26.404.501 48.045-20.833 48.045-47.125v-211.359c36.56-7.031 64.267-39.263 64.267-77.843v-145.079c-.004-10.158-5.102-19.693-13.661-25.164z"/></g></svg>