<?xml version="1.0" encoding="iso-8859-1"?>
<!-- Generator: Adobe Illustrator 19.0.0, SVG Export Plug-In . SVG Version: 6.00 Build 0)  -->
<svg version="1.1" id="Capa_1" xmlns="http://www.w3.org/2000/svg" xmlns:xlink="http://www.w3.org/1999/xlink" x="0px" y="0px"
	 viewBox="0 0 512.001 512.001" style="enable-background:new 0 0 512.001 512.001;" xml:space="preserve">
<g>
	<g>
		<g>
			<path d="M165.365,301.992c-0.296-0.008-0.592-0.002-0.888,0.008h0.483C165.096,302,165.229,301.992,165.365,301.992z"/>
			<path d="M185.96,300.5c-6.771,0.882-13.544,1.47-20.596,1.492c1.801,0.048,3.609,0.423,5.337,1.151
				c5.61,2.314,9.458,7.793,9.458,13.857v105h14.8c8.291,0,15,6.709,15,15c0,8.291-6.709,15-15,15h-60c-8.291,0-15-6.709-15-15
				c0-8.291,6.709-15,15-15h15v-68.789l-4.395,4.395c-5.859,5.859-15.352,5.859-21.211,0c-5.859-5.859-5.859-15.352,0-21.211l30-30
				c2.759-2.749,6.396-4.271,10.124-4.395H53.36c-14.702,21.299-23.401,47.1-23.401,75c0,25.499,7.2,50.099,21.301,71.7l-45.6,36.6
				c-5.099,3.9-6.899,10.8-4.799,16.8c2.098,6,7.798,9.901,14.099,9.901h150c61.8,0,113.401-41.4,129.3-98.101
				C241.759,397.099,200.359,354.2,185.96,300.5z"/>
		</g>
	</g>
</g>
<g>
	<g>
		<path d="M266.96,46.8C264.898,45.769,229.887,0,164.961,0C90.673-0.001,29.422,61.899,29.964,136.185
			c0.211,28.964,8.174,51.888,21.296,72.515c-57.701,46.312-43.24,34.705-45.6,36.6c-5.1,3.9-6.899,10.8-4.799,16.8
			c2.098,6,7.798,9.901,14.099,9.901h150c77.43,0,135-64.839,135-137C299.959,101.261,287.477,72.454,266.96,46.8z M209.959,165
			c0,12.041-4.688,23.35-13.198,31.831C188.309,205.313,177,210,164.959,210c-12.041,0-23.35-4.688-31.831-13.198
			c-8.481-8.452-13.169-19.761-13.169-31.802c0-8.291,6.709-15,15-15s15,6.709,15,15c0,4.014,1.553,7.778,4.38,10.591
			c5.684,5.713,15.586,5.684,21.211,0.029c2.856-2.842,4.409-6.606,4.409-10.62s-1.553-7.778-4.38-10.591
			c-2.842-2.856-6.606-4.409-10.62-4.409c-8.291,0-15-6.709-15-15s6.709-15,15-15c4.014,0,7.778-1.553,10.591-4.38
			c2.856-2.842,4.409-6.606,4.409-10.62c0-4.014-1.553-7.778-4.38-10.591c-5.684-5.713-15.586-5.684-21.211-0.029
			c-2.856,2.842-4.409,6.606-4.409,10.62c0,8.291-6.709,15-15,15c-8.291,0-15-6.709-15-15c0-12.041,4.688-23.35,13.198-31.831
			c16.904-16.963,46.67-16.992,63.633,0.029c8.481,8.452,13.169,19.761,13.169,31.802c0,11.235-4.226,21.738-11.688,29.996
			C205.726,143.236,209.959,153.75,209.959,165z"/>
	</g>
</g>
<g>
	<g>
		<path d="M506.093,364.999l-35.4-26.7l-10.8-8.099c13.857-20.794,22.2-46.484,22.2-73.2c0-74.401-62.735-135-137.134-135
			c-7.086,0-7.875,0.095-15.601,1.199c0.3,4.501,0.801,9,0.801,13.801c0,17.999-3.199,35.4-8.301,51.599
			c17.1-10.199,40.801-7.8,54.901,6.601c8.401,8.399,13.2,19.799,13.2,31.8c0,14.996-7.067,27.464-17.401,35.099l-24.6,18.6
			c-7.2,5.4-12.299,12.9-15,21.301h42.001c8.401,0,15,6.599,15,15c0,8.399-6.599,15-15,15h-60c-8.401,0-15-6.601-15-15
			c0-23.401,11.1-45.901,30-60l24.6-18.9c3.5-2.499,5.4-6.746,5.4-11.1c0-3.9-1.5-7.8-4.501-10.501c-5.7-5.7-15.599-5.7-20.999,0
			c-3.001,2.701-4.501,6.601-4.501,10.501c0,8.399-6.599,15-15,15c-6.899,0-12.9-4.501-14.399-11.1
			c-20.4,29.7-50.4,52.2-85.201,63.3c11.7,41.7,43.5,75.3,84,89.7v-0.3c14.041,4.685,28.22,8.401,45.601,8.401h152.134
			c6.599,0,12.299-4.2,14.099-10.201C513.293,375.5,511.193,368.899,506.093,364.999z"/>
	</g>
</g>
<g>
</g>
<g>
</g>
<g>
</g>
<g>
</g>
<g>
</g>
<g>
</g>
<g>
</g>
<g>
</g>
<g>
</g>
<g>
</g>
<g>
</g>
<g>
</g>
<g>
</g>
<g>
</g>
<g>
</g>
</svg>
