<svg id="Layer_1" enable-background="new 0 0 512 512" height="512" viewBox="0 0 512 512" width="512" xmlns="http://www.w3.org/2000/svg"><g><path d="m351.333 127.467c0-61.519-49.769-111.4-111.4-111.4-132.536 0-239.933 107.235-239.933 239.933 0 132.536 107.235 239.933 239.933 239.933 54.529 0 106.408-18.544 147.983-51.099.632-35.499 2.869-70.957 5.897-104.353-7.582 15.901-23.811 26.918-42.569 26.918-25.989 0-47.133-21.144-47.133-47.133s21.144-47.133 47.133-47.133c22.047 0 40.601 15.219 45.724 35.702 4.338-39.963 9.513-75.635 13.933-102.949-34.345-9.53-59.568-40.966-59.568-78.419zm-222.709 239.933c-25.99 0-47.134-21.144-47.134-47.133s21.144-47.133 47.134-47.133c25.989 0 47.133 21.144 47.133 47.133s-21.144 47.133-47.133 47.133zm0-128.533c-25.99 0-47.134-21.144-47.134-47.133s21.144-47.133 47.134-47.133c25.989 0 47.133 21.144 47.133 47.133s-21.144 47.133-47.133 47.133zm111.309 192.8c-25.989 0-47.133-21.144-47.133-47.133s21.144-47.133 47.133-47.133c25.99 0 47.134 21.144 47.134 47.133s-21.144 47.133-47.134 47.133zm0-257.067c-25.989 0-47.133-21.144-47.133-47.133s21.144-47.133 47.133-47.133c25.99 0 47.134 21.144 47.134 47.133s-21.144 47.133-47.134 47.133z"/><path d="m239.933 110.333c-9.447 0-17.133 7.686-17.133 17.133s7.686 17.133 17.133 17.133c9.448 0 17.134-7.686 17.134-17.133s-7.686-17.133-17.134-17.133z"/><path d="m239.933 367.4c-9.447 0-17.133 7.686-17.133 17.133s7.686 17.133 17.133 17.133c9.448 0 17.134-7.686 17.134-17.133s-7.686-17.133-17.134-17.133z"/><path d="m128.624 174.6c-9.448 0-17.134 7.686-17.134 17.133s7.686 17.133 17.134 17.133c9.447 0 17.133-7.686 17.133-17.133s-7.686-17.133-17.133-17.133z"/><circle cx="351.243" cy="320.267" r="17.133"/><path d="m128.624 303.133c-9.448 0-17.134 7.686-17.134 17.133s7.686 17.133 17.134 17.133c9.447 0 17.133-7.686 17.133-17.133s-7.686-17.133-17.133-17.133z"/><path d="m464.867 204.6c-7.932 0-15.586-1.206-22.794-3.44-9.611 57.492-24.34 162.168-24.34 263.707 0 25.989 21.144 47.133 47.133 47.133s47.134-21.144 47.134-47.133c0-101.539-14.729-206.214-24.34-263.707-7.207 2.234-14.862 3.44-22.793 3.44z"/><path d="m464.867 174.6c25.989 0 47.133-21.144 47.133-47.133 0-58.572-32.668-117.345-34.059-119.818-2.656-4.725-7.654-7.649-13.074-7.649s-10.418 2.924-13.075 7.648c-1.391 2.473-34.059 61.247-34.059 119.818 0 25.99 21.144 47.134 47.134 47.134z"/></g></svg>