<svg height="512pt" viewBox="-45 0 511 512" width="512pt" xmlns="http://www.w3.org/2000/svg"><path d="m240.5 421c64.117188 0 124.394531-24.960938 169.703125-70.296875l10.605469-10.605469-43.289063-43.285156c6.855469-8.097656 13.265625-16.578125 18.625-25.8125h-95.644531v-51.210938l30-30v-38.789062h87.289062c-4.839843-28.667969-16.445312-54.996094-33.164062-77.378906l-84.125 14.945312v71.707032l-72.042969-36.023438-32.957031 32.960938-51.210938-51.210938 36.210938-36.210938v-58.289062c-20.671875 7.34375-39.40625 18.582031-55.820312 32.46875l-43.277344-43.277344-10.601563 10.605469c-45.339843 45.308594-70.300781 105.585937-70.300781 169.703125 0 132.335938 107.664062 240 240 240zm-158.730469-377.519531 21.484375 21.480469c-20.390625 24.078124-34.5625 53.578124-40.042968 86.039062h87.289062v60h8.789062l30-30h51.210938v60h30v65.726562l59.929688 29.964844c9.261718-5.371094 17.761718-11.796875 25.878906-18.667968l21.710937 21.707031c-38.160156 33.164062-86.441406 51.269531-137.519531 51.269531-115.796875 0-210-94.203125-210-210 0-51.078125 18.105469-99.359375 51.269531-137.519531zm0 0"/><path d="m390.5 482h-64.023438l-12.765624-41.214844c-23.546876 6.597656-48.082032 10.214844-73.210938 10.214844-25.382812 0-49.859375-3.765625-73.167969-10.347656l-12.808593 41.347656h-64.023438v30h300zm0 0"/><path d="m222.539062 87.746094 47.960938 23.980468v-48.292968l90.210938-16.027344c-31.910157-28.746094-73.980469-47.40625-120.210938-47.40625-10.242188 0-20.21875 2.058594-30 3.710938v78.5l-23.789062 23.789062 8.789062 8.789062zm0 0"/><path d="m360.5 202.210938-30 30v8.789062h79.5c6.675781-18.800781 10.5-38.9375 10.5-60h-60zm0 0"/><path d="m240.5 361c18.996094 0 37.289062-3.003906 54.496094-8.484375l-54.496094-27.242187v-54.273438h-30v-60h-8.789062l-30 30h-51.210938v-60h-60c0 99.257812 80.742188 180 180 180zm0 0"/></svg>