<svg height="512pt" viewBox="0 -6 512 512" width="512pt" xmlns="http://www.w3.org/2000/svg"><path d="m364.308594 346.878906c-2.839844-7.785156-11.457032-11.785156-19.234375-8.945312-7.78125 2.839844-11.785157 11.453125-8.941407 19.234375l16.894532 46.261719c2.222656 6.082031 7.96875 9.859374 14.089844 9.859374 1.710937 0 3.449218-.296874 5.144531-.914062 7.785156-2.84375 11.789062-11.453125 8.945312-19.238281zm0 0"/><path d="m297.4375 346.878906c-2.839844-7.785156-11.457031-11.785156-19.234375-8.945312-7.78125 2.839844-11.785156 11.453125-8.941406 19.234375l16.894531 46.261719c2.222656 6.082031 7.96875 9.859374 14.089844 9.859374 1.710937 0 3.449218-.296874 5.144531-.914062 7.785156-2.84375 11.789063-11.453125 8.945313-19.238281zm0 0"/><path d="m229.007812 346.878906c-2.84375-7.785156-11.460937-11.785156-19.234374-8.945312-7.78125 2.839844-11.785157 11.453125-8.945313 19.234375l16.898437 46.261719c2.21875 6.082031 7.96875 9.859374 14.089844 9.859374 1.707032 0 3.445313-.296874 5.144532-.914062 7.78125-2.84375 11.785156-11.453125 8.945312-19.238281zm0 0"/><path d="m160.90625 346.878906c-2.839844-7.785156-11.457031-11.785156-19.234375-8.945312-7.78125 2.839844-11.785156 11.453125-8.945313 19.234375l16.898438 46.261719c2.222656 6.082031 7.96875 9.859374 14.089844 9.859374 1.710937 0 3.445312-.296874 5.144531-.914062 7.78125-2.84375 11.785156-11.453125 8.945313-19.238281zm0 0"/><path d="m353.375 433.445312c-2.84375-7.78125-11.460938-11.785156-19.234375-8.945312-7.78125 2.84375-11.785156 11.453125-8.945313 19.238281l16.898438 46.257813c2.222656 6.085937 7.96875 9.859375 14.089844 9.859375 1.710937 0 3.449218-.292969 5.144531-.914063 7.78125-2.839844 11.785156-11.453125 8.945313-19.234375zm0 0"/><path d="m285.507812 433.445312c-2.84375-7.78125-11.460937-11.785156-19.238281-8.945312-7.78125 2.84375-11.785156 11.453125-8.941406 19.238281l16.894531 46.257813c2.222656 6.085937 7.96875 9.859375 14.089844 9.859375 1.710938 0 3.449219-.292969 5.148438-.914063 7.78125-2.839844 11.785156-11.453125 8.941406-19.234375zm0 0"/><path d="m217.074219 433.445312c-2.84375-7.78125-11.460938-11.785156-19.234375-8.945312-7.78125 2.84375-11.785156 11.453125-8.945313 19.238281l16.894531 46.257813c2.222657 6.085937 7.972657 9.859375 14.09375 9.859375 1.707032 0 3.445313-.292969 5.144532-.914063 7.78125-2.839844 11.785156-11.453125 8.945312-19.234375zm0 0"/><path d="m148.972656 433.445312c-2.839844-7.78125-11.457031-11.785156-19.234375-8.945312-7.78125 2.84375-11.785156 11.453125-8.941406 19.238281l16.894531 46.257813c2.222656 6.085937 7.96875 9.859375 14.089844 9.859375 1.710938 0 3.449219-.292969 5.144531-.914063 7.785157-2.839844 11.789063-11.453125 8.945313-19.234375zm0 0"/><path d="m431.570312 151.753906h-1.269531c-6.246093-40.507812-39.855469-72.207031-81.480469-75.921875-7.074218-42.949219-44.769531-75.832031-90.070312-75.832031h-5.5c-45.300781 0-82.996094 32.882812-90.070312 75.832031-41.625 3.714844-75.234376 35.414063-81.480469 75.921875h-1.269531c-44.347657 0-80.429688 35.773438-80.429688 79.746094s36.082031 79.746094 80.429688 79.746094h351.140624c44.347657 0 80.429688-35.773438 80.429688-79.746094s-36.082031-79.746094-80.429688-79.746094zm0 0"/></svg>